<?xml version="1.0" standalone="no"?>
<!DOCTYPE svg PUBLIC "-//W3C//DTD SVG 20010904//EN"
 "http://www.w3.org/TR/2001/REC-SVG-20010904/DTD/svg10.dtd">
<svg version="1.0" xmlns="http://www.w3.org/2000/svg"
 width="310.000000pt" height="310.000000pt" viewBox="0 0 310.000000 310.000000"
 preserveAspectRatio="xMidYMid meet">
<metadata>
Created by potrace 1.14, written by Peter Selinger 2001-2017
</metadata>
<g transform="translate(0.000000,310.000000) scale(0.100000,-0.100000)"
fill="#000000" stroke="none">
<path d="M1524 3087 c1 -7 6 -19 11 -27 8 -13 7 -13 -8 -1 -14 11 -17 11 -17
0 0 -12 -2 -12 -9 0 -6 9 -11 10 -15 2 -4 -6 -4 -16 0 -23 4 -7 3 -8 -4 -4
-15 9 -16 36 -2 36 6 0 10 5 10 10 0 18 -18 10 -25 -10 -4 -11 -10 -18 -15
-15 -5 3 -7 13 -4 23 5 14 4 14 -4 2 -6 -8 -9 -17 -6 -21 2 -4 -3 -9 -11 -13
-8 -3 -15 -13 -15 -23 0 -15 -2 -16 -10 -3 -9 13 -10 13 -10 0 0 -8 -14 -23
-31 -33 -18 -10 -29 -20 -25 -24 3 -4 -2 -15 -11 -26 -10 -10 -18 -22 -18 -26
0 -3 -4 -5 -9 -3 -5 2 -4 -4 4 -13 11 -13 10 -19 -6 -36 -16 -17 -16 -19 -1
-13 9 3 17 10 17 15 0 5 5 9 11 9 8 0 9 -4 0 -13 -6 -8 -7 -18 -3 -22 4 -5 2
-5 -5 -1 -13 7 -36 -27 -25 -38 3 -4 -1 -4 -9 -1 -13 5 -16 0 -14 -19 2 -15
-1 -24 -6 -20 -5 3 -9 0 -9 -7 0 -7 -3 -9 -6 -6 -4 4 -1 13 5 21 9 11 9 16 -1
22 -7 4 -10 4 -6 -1 4 -4 4 -13 -1 -19 -6 -6 -11 -23 -13 -36 -5 -38 -17 -53
-33 -40 -9 7 -16 6 -25 -5 -7 -8 -16 -12 -21 -9 -5 3 -8 0 -7 -7 2 -6 -3 -14
-11 -17 -9 -3 -11 0 -6 8 5 9 4 11 -3 6 -9 -5 -9 -12 0 -25 14 -22 -15 -71
-42 -71 -14 0 -17 -6 -13 -22 5 -23 5 -23 -10 -3 -8 11 -19 17 -23 12 -4 -4
-2 -7 4 -7 7 0 12 -7 12 -16 0 -8 -4 -13 -9 -9 -5 3 -13 0 -17 -6 -4 -7 -3 -9
4 -5 17 10 25 -13 10 -31 -15 -18 -15 -22 4 -35 10 -8 10 -9 -2 -5 -17 4 -21
26 -8 43 4 6 2 11 -6 11 -8 0 -12 -10 -11 -27 3 -38 14 -52 34 -46 14 5 13 4
-1 -8 -20 -15 -24 -31 -5 -20 8 5 8 2 -2 -9 -12 -16 -8 -22 12 -18 5 1 5 -4 2
-10 -5 -8 -10 -8 -18 0 -16 16 -23 13 -24 -11 -2 -18 0 -20 7 -8 7 11 10 11
10 2 0 -7 -7 -15 -15 -18 -8 -4 -15 -10 -15 -16 0 -5 4 -7 9 -3 5 3 12 1 16
-4 3 -6 -5 -8 -19 -5 -14 2 -28 0 -31 -6 -4 -6 -11 -8 -16 -4 -5 3 -9 2 -8 -3
4 -25 -2 -44 -13 -37 -7 4 -10 4 -6 -1 4 -4 0 -14 -8 -22 -8 -8 -11 -19 -8
-25 4 -6 2 -8 -4 -4 -6 3 -13 2 -17 -4 -11 -18 -35 -12 -29 8 5 14 4 15 -5 2
-6 -8 -11 -23 -11 -32 0 -10 -5 -18 -11 -18 -5 0 -8 4 -4 9 3 5 0 13 -6 17 -8
5 -9 3 -4 -6 6 -9 4 -12 -7 -8 -8 4 -15 0 -15 -8 0 -7 5 -10 11 -7 6 4 4 -1
-4 -12 -8 -10 -14 -20 -12 -22 2 -3 1 -7 -2 -10 -3 -3 -4 4 -1 16 2 11 -1 21
-6 21 -6 0 -8 4 -4 9 3 5 1 12 -4 15 -5 4 -7 -7 -5 -24 5 -29 -5 -37 -39 -31
-5 1 -6 -3 -2 -9 3 -6 10 -8 15 -5 5 3 11 1 15 -5 4 -6 11 -7 17 -4 7 4 8 2 4
-4 -4 -6 -13 -9 -20 -6 -21 8 -28 -12 -10 -30 12 -13 12 -16 2 -16 -8 0 -18 3
-24 8 -5 4 1 -3 14 -15 13 -13 18 -23 12 -23 -6 0 -8 -4 -5 -10 4 -6 -1 -7
-12 -3 -10 3 -15 2 -10 -2 4 -5 -1 -17 -10 -28 -18 -20 -18 -20 10 -2 15 10
30 15 34 11 3 -3 1 -6 -6 -6 -7 0 -9 -5 -5 -12 4 -7 3 -8 -4 -4 -6 3 -16 -3
-22 -15 -10 -17 -9 -20 2 -13 19 12 39 14 32 2 -3 -5 -8 -7 -11 -4 -7 7 -27
-14 -36 -37 -4 -11 -12 -15 -18 -11 -8 4 -9 3 -5 -5 4 -6 11 -9 16 -6 5 3 11
1 15 -5 3 -5 -1 -10 -10 -10 -9 0 -13 -5 -10 -10 4 -6 1 -17 -5 -25 -7 -8 -10
-22 -6 -30 7 -19 1 -19 -18 0 -13 14 -15 13 -14 -7 1 -13 5 -28 10 -35 5 -6 5
-14 -2 -18 -6 -3 -8 -10 -5 -15 3 -5 1 -11 -4 -14 -11 -7 -9 13 2 32 5 7 4 12
-2 12 -6 0 -11 -5 -11 -11 0 -5 -6 -7 -12 -3 -10 6 -10 5 -1 -7 10 -12 10 -18
1 -27 -7 -7 -8 -12 -3 -12 4 0 1 -8 -8 -17 -8 -10 -17 -22 -19 -28 -2 -5 -7
-9 -11 -7 -5 1 -6 -2 -2 -8 3 -6 11 -8 16 -5 5 4 9 1 9 -4 0 -6 -11 -11 -25
-11 -14 0 -25 -5 -25 -11 0 -5 4 -8 8 -5 4 2 14 0 22 -6 12 -8 11 -9 -4 -4
-13 5 -17 2 -13 -9 4 -8 2 -17 -3 -20 -6 -4 -10 -11 -10 -16 0 -6 4 -8 8 -5 5
3 9 -1 9 -9 0 -12 -4 -12 -19 2 -18 16 -18 16 -12 -2 6 -14 4 -16 -6 -10 -8 5
-11 4 -7 -2 4 -6 -5 -21 -18 -33 -14 -13 -25 -19 -25 -14 0 5 -5 1 -11 -9 -5
-9 -7 -22 -4 -27 3 -6 -1 -7 -9 -4 -9 3 -14 9 -11 13 2 4 -2 8 -10 8 -12 0
-12 -4 2 -19 16 -18 16 -18 -2 -12 -14 6 -16 4 -10 -7 7 -12 6 -12 -7 -1 -13
10 -18 10 -24 1 -5 -8 -3 -10 7 -4 8 5 11 4 6 0 -11 -12 -49 -17 -42 -6 3 6
-4 8 -16 6 -25 -5 -37 -14 -21 -16 27 -3 31 -4 39 -13 5 -5 3 -6 -4 -2 -7 4
-13 3 -13 -2 0 -5 -7 -9 -15 -9 -8 0 -12 4 -9 9 3 4 0 8 -7 8 -7 0 -9 -8 -6
-21 4 -16 3 -18 -9 -8 -11 9 -14 9 -14 0 0 -7 -5 -9 -12 -5 -7 5 -8 3 -3 -6 6
-10 3 -12 -13 -8 -13 4 -20 2 -19 -6 1 -6 -6 -10 -17 -9 -13 1 -15 -2 -7 -10
16 -16 14 -32 -3 -18 -11 9 -13 6 -11 -14 2 -14 -1 -23 -6 -19 -18 11 -49 13
-49 2 0 -5 6 -8 14 -5 8 3 20 0 26 -8 10 -12 7 -13 -17 -9 -15 2 -34 7 -41 9
-8 3 -10 0 -5 -8 4 -6 9 -20 10 -30 3 -15 1 -16 -11 -5 -8 7 -12 16 -10 19 2
3 -3 6 -11 6 -8 0 -12 -4 -9 -9 3 -4 7 -17 9 -28 4 -19 3 -19 -23 -3 -26 17
-27 17 -12 -1 14 -18 14 -19 -6 -8 -16 9 -21 8 -21 -3 0 -8 4 -12 8 -9 4 2 10
1 13 -4 2 -4 -4 -9 -15 -9 -10 -1 -19 2 -19 8 0 5 -5 9 -10 9 -7 0 -7 -6 0
-20 9 -17 8 -20 -10 -20 -25 0 -25 -8 -3 -33 18 -19 17 -20 -7 -7 l-25 13 19
-22 c17 -18 17 -21 3 -15 -9 3 -17 2 -17 -4 0 -6 6 -13 13 -15 10 -4 10 -6 0
-6 -10 -1 -13 -110 -13 -511 l0 -510 1550 0 1551 0 -2 89 c-3 86 -3 89 -24 81
-16 -6 -22 -4 -22 5 0 8 4 12 8 10 11 -7 39 6 39 18 0 8 -4 7 -12 -1 -16 -16
-41 17 -26 35 7 9 4 11 -12 8 -18 -3 -20 0 -15 18 5 20 4 20 -10 -3 -9 -14
-14 -17 -11 -8 3 10 -2 22 -12 28 -16 11 -16 11 0 6 12 -3 15 -1 11 10 -3 8
-12 13 -21 12 -8 -2 -17 3 -19 10 -3 6 0 12 7 12 6 0 8 -4 5 -10 -4 -6 1 -7
11 -3 11 4 13 8 6 11 -7 2 -12 10 -12 18 0 9 5 12 12 8 6 -4 8 -3 5 3 -4 6
-24 9 -44 7 -29 -2 -34 -1 -23 7 11 8 12 12 2 16 -6 2 -10 9 -6 14 3 5 0 9 -6
9 -6 0 -8 5 -4 12 4 7 3 8 -5 4 -6 -4 -8 -12 -5 -18 4 -7 2 -8 -5 -4 -7 4 -9
17 -6 29 5 20 5 20 -8 -2 -9 -15 -17 -20 -21 -12 -4 6 -2 11 3 11 6 0 11 5 11
11 0 5 -4 7 -10 4 -5 -3 -10 3 -10 14 0 12 -4 21 -10 21 -5 0 -7 -8 -3 -17 5
-15 3 -14 -10 2 -20 25 -21 36 -3 29 8 -3 17 -1 20 4 3 5 -8 8 -25 6 -16 -2
-28 0 -25 4 3 5 -4 16 -15 25 -10 9 -19 13 -19 7 0 -5 7 -13 16 -18 12 -6 8
-9 -16 -9 -17 0 -27 3 -22 6 5 3 9 14 9 24 0 13 -5 16 -21 11 -18 -6 -19 -5
-7 10 15 18 1 22 -16 5 -8 -8 -11 -3 -9 19 1 17 0 30 -3 30 -19 -2 -22 4 -11
17 8 9 8 15 2 15 -6 0 -12 -4 -14 -10 -1 -5 -14 0 -28 11 -14 12 -20 18 -13
15 6 -4 14 -2 17 3 7 10 -13 9 -30 -2 -7 -4 -17 0 -24 9 -7 8 -19 13 -26 10
-8 -3 -11 5 -10 24 1 19 -2 26 -11 23 -7 -3 -13 2 -13 12 0 9 -5 13 -10 10 -6
-4 -7 -11 -4 -17 4 -7 2 -8 -5 -4 -6 4 -8 12 -5 18 5 7 1 9 -9 5 -11 -4 -15
-1 -12 14 3 15 -2 19 -21 19 -14 0 -23 4 -19 10 3 5 11 8 18 6 7 -1 9 -1 4 1
-4 3 -5 8 -3 12 3 4 -1 8 -9 8 -8 0 -12 -4 -9 -9 3 -4 0 -8 -5 -8 -10 0 -15
14 -12 33 1 5 -4 5 -10 1 -9 -5 -10 -2 -6 10 4 10 3 15 -3 11 -6 -3 -8 -16 -6
-28 1 -12 1 -17 -1 -10 -2 7 -10 11 -16 9 -7 -1 -9 -1 -4 1 16 10 5 20 -18 18
-14 -2 -23 1 -19 6 3 5 10 7 15 4 15 -10 10 2 -8 16 -9 8 -14 10 -11 4 3 -5 0
-15 -7 -22 -10 -10 -15 -9 -21 5 -4 9 -6 23 -5 30 1 6 -5 12 -13 12 -9 0 -14
-6 -12 -12 1 -7 1 -10 -1 -5 -3 4 -9 5 -13 2 -5 -3 -12 -1 -15 5 -4 6 -3 9 2
8 14 -5 55 29 44 37 -6 3 -11 2 -11 -3 0 -15 -28 -23 -36 -10 -4 6 -3 8 4 4
17 -10 27 16 10 28 -24 18 -18 43 9 40 13 -1 21 2 17 7 -3 5 -10 6 -16 3 -6
-4 -8 -2 -4 4 3 5 0 13 -6 16 -7 3 -3 3 9 1 12 -3 24 -1 28 5 9 14 -14 42 -28
33 -6 -3 -7 -1 -3 6 6 9 11 9 24 -1 14 -11 15 -10 9 6 -5 13 -3 17 7 13 10 -4
13 -1 9 8 -3 8 -9 13 -13 10 -5 -3 -12 0 -16 6 -4 8 -3 9 4 5 12 -7 15 1 15
36 0 10 4 15 8 12 5 -3 7 -10 4 -15 -4 -5 2 -6 11 -2 12 4 14 8 6 11 -10 3
-10 7 0 20 11 14 10 15 -7 9 -20 -7 -20 -7 0 8 16 12 17 18 7 24 -11 7 -10 10
3 15 10 3 15 12 11 21 -3 8 0 17 6 21 7 4 8 3 4 -4 -13 -22 25 -13 56 13 16
14 25 25 19 25 -6 0 -11 8 -11 18 0 13 2 14 9 3 5 -7 14 -10 20 -6 9 5 8 10
-4 19 -15 10 -14 12 4 12 11 0 17 -5 14 -10 -4 -5 1 -7 10 -3 10 4 20 0 25
-10 8 -14 10 -13 15 2 4 9 11 14 16 11 5 -3 12 1 15 10 3 8 11 12 16 9 6 -4 9
-1 8 6 -2 7 2 13 9 14 6 0 15 4 20 9 4 5 3 6 -3 3 -15 -9 -26 31 -12 40 6 3 8
1 5 -4 -4 -6 0 -14 9 -17 10 -4 13 -2 8 6 -5 8 -1 9 12 5 18 -7 18 -7 0 8 -17
13 -17 15 -4 15 9 0 20 5 24 12 4 6 3 8 -3 5 -6 -4 -14 0 -17 9 -3 8 -2 13 3
10 5 -3 11 1 15 9 3 8 0 15 -7 15 -7 0 -6 4 3 10 8 5 15 15 15 22 0 7 10 12
22 12 13 -1 20 3 17 7 -3 5 1 9 8 9 11 0 11 2 0 9 -8 4 -12 17 -10 27 2 12 -2
18 -12 16 -8 -1 -2 9 13 23 26 23 27 30 4 26 -5 -1 -6 3 -2 8 3 6 13 7 22 4
13 -5 11 1 -7 28 -13 19 -17 28 -9 22 25 -20 30 -3 6 19 l-22 19 23 -11 c13
-7 26 -9 30 -6 3 3 0 6 -7 6 -7 0 -9 4 -6 10 3 5 -2 10 -12 11 -11 0 -13 3 -5
6 6 2 10 8 7 13 -3 4 3 14 12 21 14 12 16 12 8 -1 -6 -12 -5 -12 5 -3 15 14 4
36 -13 26 -7 -4 -6 0 2 10 15 19 26 23 15 5 -4 -7 -3 -8 5 -4 9 6 9 11 1 21
-8 9 -8 15 0 20 5 3 10 1 10 -5 0 -6 5 -8 11 -5 6 5 4 11 -7 19 -12 9 -14 15
-5 20 8 5 8 13 -1 29 -7 12 -11 28 -9 36 1 8 -2 10 -9 6 -13 -8 14 38 39 68
13 16 13 18 1 15 -11 -2 -14 5 -12 26 3 21 1 26 -10 20 -11 -7 -11 -5 0 9 8 9
11 21 7 26 -3 6 -1 20 6 32 9 17 13 19 20 8 7 -11 9 -10 9 5 0 12 -5 16 -15
12 -9 -3 -15 0 -15 10 0 8 -5 12 -10 9 -7 -4 -9 3 -6 18 2 13 0 30 -6 38 -8
11 -9 10 -4 -4 4 -11 2 -16 -5 -12 -5 4 -8 20 -5 37 2 16 2 27 -1 24 -9 -8
-43 24 -43 41 0 7 6 13 13 13 6 0 4 5 -6 11 -9 6 -14 15 -11 21 4 6 2 8 -4 4
-6 -3 -14 3 -17 15 -4 11 -9 18 -12 16 -6 -6 16 -50 30 -58 5 -4 5 -9 -2 -13
-6 -4 -11 -2 -11 4 0 6 -5 8 -12 4 -6 -4 -8 -3 -5 4 4 5 4 17 1 26 -5 14 -9
14 -23 4 -14 -12 -15 -11 -2 5 12 15 11 20 -4 37 -9 10 -14 23 -11 29 4 5 1
13 -5 17 -7 4 -9 3 -6 -2 3 -6 1 -16 -5 -24 -8 -13 -9 -12 -5 2 7 19 -15 42
-29 30 -4 -4 -3 0 3 8 6 8 9 25 7 38 -3 16 0 21 8 16 7 -4 8 -3 4 5 -4 6 -12
9 -17 6 -5 -4 -17 -1 -26 5 -17 11 -17 11 0 6 10 -3 16 -2 12 3 -3 5 1 12 7
15 7 3 3 3 -9 0 -25 -6 -32 13 -12 33 8 8 7 13 -2 18 -7 5 -10 4 -5 -3 3 -6 2
-13 -4 -17 -6 -3 -13 1 -16 9 -3 9 -9 14 -13 12 -3 -2 -13 3 -21 12 -13 14
-12 15 4 9 15 -6 17 -5 8 6 -7 8 -8 17 -4 21 4 4 0 6 -8 4 -8 -2 -14 2 -13 9
1 6 -8 10 -23 8 -15 -1 -30 5 -38 16 -7 11 -16 16 -20 12 -4 -4 -4 -1 -1 8 4
10 -2 15 -20 17 -14 1 -25 -3 -25 -10 0 -6 -3 -8 -6 -5 -4 4 -2 13 4 20 9 10
8 14 -3 14 -8 0 -17 -9 -21 -19 -3 -10 -10 -18 -16 -18 -6 0 -8 3 -5 7 4 3 1
13 -6 21 -8 11 -8 14 0 9 6 -4 14 -3 17 2 3 5 -10 7 -29 5 -22 -2 -33 1 -29 7
3 6 0 10 -7 8 -26 -3 -39 1 -39 12 0 8 4 8 13 0 10 -8 14 -7 14 4 0 8 -4 12
-8 10 -4 -3 -9 1 -12 9 -3 8 -18 21 -34 28 -15 8 -27 20 -25 28 2 10 -1 11
-10 3 -26 -20 -47 -21 -68 -3 -12 10 -29 16 -40 13 -11 -3 -20 -1 -20 4 0 5
-6 10 -14 10 -8 0 -12 -6 -9 -14 3 -7 9 -11 13 -8 4 3 14 -3 21 -13 13 -15 12
-16 -3 -3 -15 11 -18 11 -18 0 0 -9 -5 -7 -11 5 -9 15 -13 16 -21 5 -6 -10 -7
-6 -2 11 6 23 6 24 -11 10 -11 -9 -16 -10 -11 -2 9 16 -35 17 -51 1 -9 -9 -10
-7 -6 9 3 12 9 19 14 16 5 -3 9 0 9 5 0 17 -18 13 -29 -6 -6 -10 -11 -12 -11
-5 0 6 -5 12 -11 12 -5 0 -7 -5 -3 -12 5 -7 3 -8 -6 -3 -10 6 -9 11 6 22 14
11 15 14 4 13 -33 -5 -51 0 -44 12 4 7 3 8 -4 4 -6 -3 -16 2 -22 13 -6 13 -16
18 -26 14 -13 -5 -15 -2 -9 18 l7 24 -21 -24 c-11 -13 -21 -20 -21 -15 0 6 6
16 13 23 10 11 8 11 -13 1 -21 -11 -23 -11 -13 1 9 12 3 14 -37 14 -27 1 -47
-3 -44 -7 2 -4 13 -5 23 -3 10 2 23 0 29 -4 6 -3 -27 -7 -73 -7 -46 0 -82 3
-79 7 2 4 -2 9 -10 12 -8 3 -13 0 -12 -6z m308 -81 l21 -15 -21 2 c-11 0 -20
6 -19 12 1 5 -3 9 -8 8 -6 -1 -12 8 -12 20 -2 19 -1 20 8 5 5 -10 19 -24 31
-32z m-458 -31 c-4 -8 -14 -15 -23 -15 -14 1 -13 3 3 15 25 19 27 19 20 0z
m579 -28 c3 -8 -1 -14 -8 -14 -7 0 -11 6 -8 14 3 7 6 13 8 13 2 0 5 -6 8 -13z
m-606 -4 c-4 -3 1 -12 11 -20 16 -12 16 -13 -2 -6 -14 5 -17 3 -11 -7 5 -9 4
-11 -3 -6 -7 4 -12 1 -12 -9 0 -9 -5 -13 -10 -10 -8 5 -7 11 1 21 6 8 8 14 4
14 -4 0 -2 7 5 15 7 8 15 15 18 15 3 0 2 -3 -1 -7z m731 -18 c-3 -3 -9 2 -12
12 -6 14 -5 15 5 6 7 -7 10 -15 7 -18z m120 -25 c17 0 22 -14 10 -30 -8 -12
-9 -12 -4 3 5 16 -9 23 -37 18 -5 -1 -6 3 -3 8 4 5 2 12 -3 16 -5 3 -14 -3
-20 -12 -6 -10 -11 -13 -11 -7 0 5 5 15 12 22 9 9 15 8 28 -3 9 -8 22 -15 28
-15z m282 -165 c7 -9 8 -15 2 -15 -5 0 -12 7 -16 15 -3 8 -4 15 -2 15 2 0 9
-7 16 -15z m-1205 -15 c3 -6 -1 -7 -9 -4 -18 7 -21 14 -7 14 6 0 13 -4 16 -10z
m-89 -47 c-2 -10 -8 -18 -15 -18 -6 0 -16 -7 -21 -15 -5 -8 -10 -11 -10 -6 0
8 39 56 46 56 1 0 1 -8 0 -17z m1345 -21 c-7 -2 -18 1 -23 6 -8 8 -4 9 13 5
13 -4 18 -8 10 -11z m219 -327 c0 -12 -19 -12 -23 0 -4 9 -1 12 9 8 7 -3 14
-7 14 -8z m-1703 -10 c0 -8 -4 -12 -9 -9 -5 3 -6 10 -3 15 9 13 12 11 12 -6z
m-63 -37 c-5 -8 -2 -9 10 -5 11 4 15 3 11 -4 -4 -6 -13 -8 -21 -5 -16 6 -18
-5 -4 -22 5 -7 2 -6 -7 2 -13 12 -14 18 -3 30 15 19 24 21 14 4z m1801 -57 c3
-5 2 -12 -3 -15 -5 -3 -9 1 -9 9 0 17 3 19 12 6z m-1881 -67 c3 -8 2 -12 -4
-9 -6 3 -10 10 -10 16 0 14 7 11 14 -7z m1876 -89 c-7 -8 -18 -15 -24 -15 -6
0 -2 7 8 15 25 19 32 19 16 0z m-6 -126 c-10 -16 -23 -9 -21 10 1 15 4 17 14
9 7 -5 10 -14 7 -19z m-2028 -86 c-3 -4 -6 -1 -6 6 0 7 -4 9 -10 6 -6 -4 -7 1
-3 11 6 15 7 15 15 -1 6 -9 7 -19 4 -22z m-21 -63 c3 -5 1 -10 -4 -10 -6 0
-11 5 -11 10 0 6 2 10 4 10 3 0 8 -4 11 -10z m-70 -131 c-4 -5 0 -9 7 -9 8 -1
4 -8 -9 -19 -12 -10 -20 -21 -18 -25 3 -3 2 -4 -2 -1 -13 10 -11 34 3 46 8 6
11 16 7 22 -3 6 -1 7 6 3 6 -4 9 -12 6 -17z m29 5 c3 -8 2 -12 -4 -9 -6 3 -10
10 -10 16 0 14 7 11 14 -7z m2021 -84 c-3 -5 -13 -6 -21 -3 -12 4 -13 8 -3 14
15 9 32 2 24 -11z m-2142 -107 c-7 -3 -13 -12 -14 -21 0 -11 -2 -13 -6 -4 -6
15 17 46 26 36 3 -4 0 -9 -6 -11z m-38 -33 c-3 -5 -1 -10 4 -10 6 0 11 -5 11
-11 0 -8 -5 -8 -15 1 -11 9 -15 9 -15 1 0 -7 -5 -9 -11 -6 -6 5 -4 12 8 21 22
16 26 17 18 4z m2043 -62 c-33 -29 -52 -31 -24 -3 9 9 16 14 16 10 0 -3 6 0
14 7 7 7 11 20 9 28 -4 13 -4 13 6 0 9 -12 5 -21 -21 -42z m-123 -60 c3 -2 -4
-13 -15 -23 -11 -10 -20 -13 -20 -7 0 7 6 12 13 12 8 0 7 3 -3 9 -8 6 -18 7
-24 4 -5 -3 -6 -2 -3 4 6 10 42 11 52 1z m-2172 -33 c-3 -9 -8 -14 -10 -11 -3
3 -2 9 2 15 9 16 15 13 8 -4z m-226 -191 c-3 -3 -12 -4 -19 -1 -8 3 -5 6 6 6
11 1 17 -2 13 -5z m2443 -324 c0 -5 -5 -10 -11 -10 -5 0 -7 5 -4 10 3 6 8 10
11 10 2 0 4 -4 4 -10z m195 -150 c16 -17 16 -20 3 -15 -9 4 -19 13 -22 21 -7
19 -2 18 19 -6z m130 -138 c-3 -3 -11 0 -18 7 -9 10 -8 11 6 5 10 -3 15 -9 12
-12z m162 -138 c-3 -3 -12 -4 -19 -1 -8 3 -5 6 6 6 11 1 17 -2 13 -5z m70
-111 c-4 -3 -1 -13 6 -21 10 -13 9 -14 -12 -3 -19 10 -21 15 -10 22 17 10 25
12 16 2z"/>
<path d="M635 1640 c-3 -5 -1 -10 4 -10 6 0 11 5 11 10 0 6 -2 10 -4 10 -3 0
-8 -4 -11 -10z"/>
<path d="M1564 3093 c4 -4 16 -8 28 -10 28 -4 18 6 -12 12 -12 2 -20 1 -16 -2z"/>
<path d="M1365 3020 c-3 -5 -1 -10 4 -10 6 0 11 5 11 10 0 6 -2 10 -4 10 -3 0
-8 -4 -11 -10z"/>
<path d="M2105 2940 c3 -5 8 -10 11 -10 2 0 4 5 4 10 0 6 -5 10 -11 10 -5 0
-7 -4 -4 -10z"/>
<path d="M1256 2822 c-3 -5 1 -9 9 -9 8 0 12 4 9 9 -3 4 -7 8 -9 8 -2 0 -6 -4
-9 -8z"/>
<path d="M2434 2780 c2 -16 20 -14 24 2 3 10 2 10 -6 -1 -7 -9 -11 -10 -15 -2
-4 7 -5 8 -3 1z"/>
<path d="M1199 2732 c11 -8 11 -10 0 -15 -11 -4 -11 -6 -1 -6 7 -1 10 -6 6
-13 -4 -6 -3 -8 4 -5 14 10 8 40 -9 45 -12 3 -12 2 0 -6z"/>
<path d="M1086 2621 c-3 -5 1 -11 9 -15 15 -6 29 7 18 18 -9 9 -21 8 -27 -3z"/>
<path d="M1078 2583 c7 -3 16 -2 19 1 4 3 -2 6 -13 5 -11 0 -14 -3 -6 -6z"/>
<path d="M2605 2570 c-3 -6 1 -7 9 -4 18 7 21 14 7 14 -6 0 -13 -4 -16 -10z"/>
<path d="M2605 2540 c4 -6 11 -8 16 -5 14 9 11 15 -7 15 -8 0 -12 -5 -9 -10z"/>
<path d="M2647 2489 c7 -7 15 -10 18 -7 3 3 -2 9 -12 12 -14 6 -15 5 -6 -5z"/>
<path d="M1000 2420 c8 -5 20 -10 25 -10 6 0 3 5 -5 10 -8 5 -19 10 -25 10 -5
0 -3 -5 5 -10z"/>
<path d="M2726 2381 c-3 -5 1 -11 9 -14 9 -4 12 -1 8 9 -6 16 -10 17 -17 5z"/>
<path d="M2790 2271 c0 -6 4 -13 10 -16 6 -3 7 1 4 9 -7 18 -14 21 -14 7z"/>
<path d="M900 2221 c0 -7 -4 -10 -8 -7 -5 3 -9 -2 -9 -10 0 -13 2 -13 16 0 8
9 12 19 8 22 -4 4 -7 2 -7 -5z"/>
<path d="M2794 2166 c0 -13 4 -22 8 -20 9 6 6 44 -3 44 -4 0 -6 -11 -5 -24z"/>
<path d="M2792 2045 c4 -4 0 -13 -9 -20 -13 -10 -14 -13 -2 -20 8 -5 11 -5 7
0 -4 4 0 13 9 20 13 10 14 13 2 20 -8 5 -11 5 -7 0z"/>
<path d="M2770 1986 c0 -2 7 -7 16 -10 8 -3 12 -2 9 4 -6 10 -25 14 -25 6z"/>
<path d="M2740 1816 c0 -2 7 -9 15 -16 9 -7 15 -8 15 -2 0 5 -7 12 -15 16 -8
3 -15 4 -15 2z"/>
<path d="M2750 1721 c0 -6 4 -13 10 -16 6 -3 7 1 4 9 -7 18 -14 21 -14 7z"/>
<path d="M2720 1649 c-12 -9 -12 -10 4 -5 14 5 17 3 12 -11 -6 -15 -5 -16 5
-5 18 17 -1 35 -21 21z"/>
<path d="M545 1560 c-4 -6 -3 -10 2 -9 20 3 27 -2 13 -11 -9 -6 -10 -10 -3
-10 19 0 24 17 9 29 -10 9 -16 9 -21 1z"/>
<path d="M2685 1553 c3 -3 0 -11 -5 -18 -7 -8 -5 -12 4 -12 14 0 16 22 3 32
-4 3 -5 2 -2 -2z"/>
<path d="M2670 1500 c0 -5 5 -10 10 -10 6 0 10 5 10 10 0 6 -4 10 -10 10 -5 0
-10 -4 -10 -10z"/>
<path d="M2501 1336 c-9 -11 -9 -16 1 -22 7 -4 10 -4 6 1 -4 4 -3 14 3 22 6 7
9 13 6 13 -2 0 -10 -6 -16 -14z"/>
<path d="M2381 1247 c-8 -10 -7 -14 4 -14 8 0 12 4 9 8 -2 4 2 10 8 12 8 4 9
6 2 6 -6 1 -17 -5 -23 -12z"/>
<path d="M90 1196 c0 -2 8 -10 18 -17 15 -13 16 -12 3 4 -13 16 -21 21 -21 13z"/>
<path d="M2348 1133 c7 -3 16 -2 19 1 4 3 -2 6 -13 5 -11 0 -14 -3 -6 -6z"/>
<path d="M2280 986 c0 -2 7 -6 15 -10 8 -3 15 -1 15 4 0 6 -7 10 -15 10 -8 0
-15 -2 -15 -4z"/>
<path d="M2335 880 c3 -5 8 -10 11 -10 2 0 4 5 4 10 0 6 -5 10 -11 10 -5 0 -7
-4 -4 -10z"/>
<path d="M2520 780 c0 -5 5 -10 11 -10 5 0 7 5 4 10 -3 6 -8 10 -11 10 -2 0
-4 -4 -4 -10z"/>
<path d="M2584 708 c-4 -7 -4 -10 1 -6 4 4 16 -3 26 -15 10 -12 18 -16 19 -9
0 6 -4 12 -10 12 -5 0 -10 7 -10 15 0 18 -16 20 -26 3z"/>
<path d="M2725 600 c-3 -5 -2 -10 4 -10 5 0 13 5 16 10 3 6 2 10 -4 10 -5 0
-13 -4 -16 -10z"/>
<path d="M2960 379 c0 -5 5 -7 10 -4 6 3 10 8 10 11 0 2 -4 4 -10 4 -5 0 -10
-5 -10 -11z"/>
</g>
</svg>
